<mxfile host="app.diagrams.net" modified="2021-02-12T10:41:18.782Z" agent="5.0 (Windows NT 10.0; Win64; x64) AppleWebKit/537.36 (KHTML, like Gecko) Chrome/84.0.4147.105 Safari/537.36" etag="scBMLjq_mhxpFsAevVaD" version="14.2.9" type="github">
  <diagram id="admTBz_KrJmi1BbA4oSx" name="Page-1">
    <mxGraphModel dx="2249" dy="763" grid="1" gridSize="10" guides="1" tooltips="1" connect="1" arrows="1" fold="1" page="1" pageScale="1" pageWidth="827" pageHeight="1169" math="0" shadow="0">
      <root>
        <mxCell id="0" />
        <mxCell id="1" parent="0" />
        <mxCell id="jYcr3VotyzjDWBihK4hr-34" value="" style="rounded=1;whiteSpace=wrap;html=1;strokeWidth=1;perimeterSpacing=0;" parent="1" vertex="1">
          <mxGeometry x="39" y="230" width="310" height="410" as="geometry" />
        </mxCell>
        <mxCell id="jYcr3VotyzjDWBihK4hr-35" value="" style="shape=cylinder3;whiteSpace=wrap;html=1;boundedLbl=1;backgroundOutline=1;size=15;" parent="1" vertex="1">
          <mxGeometry x="-230" y="330" width="205" height="240" as="geometry" />
        </mxCell>
        <mxCell id="jYcr3VotyzjDWBihK4hr-38" value="AccountCreatedEvent" style="shape=hexagon;perimeter=hexagonPerimeter2;whiteSpace=wrap;html=1;fixedSize=1;fillColor=#dae8fc;strokeColor=#6c8ebf;" parent="1" vertex="1">
          <mxGeometry x="-212.5" y="380" width="170" height="50" as="geometry" />
        </mxCell>
        <mxCell id="jYcr3VotyzjDWBihK4hr-39" style="edgeStyle=orthogonalEdgeStyle;rounded=0;orthogonalLoop=1;jettySize=auto;html=1;entryX=0.5;entryY=0;entryDx=0;entryDy=0;strokeWidth=2;strokeColor=#0000CC;" parent="1" source="jYcr3VotyzjDWBihK4hr-40" target="jYcr3VotyzjDWBihK4hr-125" edge="1">
          <mxGeometry relative="1" as="geometry">
            <mxPoint x="194" y="265" as="targetPoint" />
          </mxGeometry>
        </mxCell>
        <mxCell id="jYcr3VotyzjDWBihK4hr-40" value="Handler" style="rounded=0;whiteSpace=wrap;html=1;" parent="1" vertex="1">
          <mxGeometry x="134" y="160" width="120" height="60" as="geometry" />
        </mxCell>
        <mxCell id="jYcr3VotyzjDWBihK4hr-44" value="" style="rounded=1;whiteSpace=wrap;html=1;fillColor=#ffffff;" parent="1" vertex="1">
          <mxGeometry x="49" y="540" width="290" height="60" as="geometry" />
        </mxCell>
        <mxCell id="jYcr3VotyzjDWBihK4hr-45" value="AccountCreatedEvent" style="shape=hexagon;perimeter=hexagonPerimeter2;whiteSpace=wrap;html=1;fixedSize=1;fillColor=#dae8fc;strokeColor=#6c8ebf;" parent="1" vertex="1">
          <mxGeometry x="-212.5" y="440" width="170" height="50" as="geometry" />
        </mxCell>
        <mxCell id="jYcr3VotyzjDWBihK4hr-47" value="AccountCreatedEvent" style="shape=hexagon;perimeter=hexagonPerimeter2;whiteSpace=wrap;html=1;fixedSize=1;fillColor=#f8cecc;strokeColor=#b85450;" parent="1" vertex="1">
          <mxGeometry x="-212.5" y="500" width="170" height="50" as="geometry" />
        </mxCell>
        <mxCell id="jYcr3VotyzjDWBihK4hr-122" style="edgeStyle=orthogonalEdgeStyle;rounded=0;orthogonalLoop=1;jettySize=auto;html=1;entryX=1.002;entryY=0.644;entryDx=0;entryDy=0;entryPerimeter=0;strokeColor=#0000CC;strokeWidth=2;" parent="1" source="jYcr3VotyzjDWBihK4hr-48" target="jYcr3VotyzjDWBihK4hr-35" edge="1">
          <mxGeometry relative="1" as="geometry" />
        </mxCell>
        <mxCell id="jYcr3VotyzjDWBihK4hr-48" value="" style="rounded=1;whiteSpace=wrap;html=1;fillColor=#ffffff;" parent="1" vertex="1">
          <mxGeometry x="49" y="470" width="290" height="60" as="geometry" />
        </mxCell>
        <mxCell id="jYcr3VotyzjDWBihK4hr-117" style="edgeStyle=orthogonalEdgeStyle;rounded=0;orthogonalLoop=1;jettySize=auto;html=1;entryX=1.002;entryY=0.458;entryDx=0;entryDy=0;entryPerimeter=0;strokeColor=#0000CC;strokeWidth=2;" parent="1" source="jYcr3VotyzjDWBihK4hr-49" target="jYcr3VotyzjDWBihK4hr-35" edge="1">
          <mxGeometry relative="1" as="geometry" />
        </mxCell>
        <mxCell id="jYcr3VotyzjDWBihK4hr-49" value="" style="rounded=1;whiteSpace=wrap;html=1;fillColor=#ffffff;" parent="1" vertex="1">
          <mxGeometry x="49" y="400" width="290" height="60" as="geometry" />
        </mxCell>
        <mxCell id="jYcr3VotyzjDWBihK4hr-50" value="" style="rounded=1;whiteSpace=wrap;html=1;fillColor=#ffffff;" parent="1" vertex="1">
          <mxGeometry x="49" y="330" width="290" height="60" as="geometry" />
        </mxCell>
        <mxCell id="jYcr3VotyzjDWBihK4hr-51" value="PublishService" style="text;html=1;strokeColor=none;fillColor=none;align=left;verticalAlign=middle;whiteSpace=wrap;rounded=0;" parent="1" vertex="1">
          <mxGeometry x="60" y="550" width="100" height="20" as="geometry" />
        </mxCell>
        <mxCell id="jYcr3VotyzjDWBihK4hr-52" value="EventStoreService" style="text;html=1;strokeColor=none;fillColor=none;align=left;verticalAlign=middle;whiteSpace=wrap;rounded=0;" parent="1" vertex="1">
          <mxGeometry x="60" y="480" width="100" height="20" as="geometry" />
        </mxCell>
        <mxCell id="jYcr3VotyzjDWBihK4hr-53" value="LicenseManager" style="text;html=1;strokeColor=none;fillColor=none;align=left;verticalAlign=middle;whiteSpace=wrap;rounded=0;" parent="1" vertex="1">
          <mxGeometry x="60" y="410" width="100" height="20" as="geometry" />
        </mxCell>
        <mxCell id="jYcr3VotyzjDWBihK4hr-54" value="AccountContext" style="text;html=1;strokeColor=none;fillColor=none;align=left;verticalAlign=middle;whiteSpace=wrap;rounded=0;" parent="1" vertex="1">
          <mxGeometry x="60" y="340" width="100" height="20" as="geometry" />
        </mxCell>
        <mxCell id="jYcr3VotyzjDWBihK4hr-55" value="StatesManager" style="text;html=1;strokeColor=none;fillColor=none;align=left;verticalAlign=middle;whiteSpace=wrap;rounded=0;" parent="1" vertex="1">
          <mxGeometry x="60" y="240" width="100" height="20" as="geometry" />
        </mxCell>
        <mxCell id="jYcr3VotyzjDWBihK4hr-60" value="AccountCreatedEvent" style="shape=hexagon;perimeter=hexagonPerimeter2;whiteSpace=wrap;html=1;fixedSize=1;fillColor=#dae8fc;strokeColor=#6c8ebf;" parent="1" vertex="1">
          <mxGeometry x="170" y="477.5" width="160" height="45" as="geometry" />
        </mxCell>
        <mxCell id="jYcr3VotyzjDWBihK4hr-61" value="AccountPendingState" style="rounded=1;whiteSpace=wrap;html=1;strokeWidth=1;fillColor=#fff2cc;strokeColor=#d6b656;" parent="1" vertex="1">
          <mxGeometry x="170" y="410" width="160" height="40" as="geometry" />
        </mxCell>
        <mxCell id="jYcr3VotyzjDWBihK4hr-62" value="R" style="ellipse;whiteSpace=wrap;html=1;aspect=fixed;fillColor=#e1d5e7;strokeColor=#9673a6;" parent="1" vertex="1">
          <mxGeometry x="-10" y="385" width="35" height="35" as="geometry" />
        </mxCell>
        <mxCell id="jYcr3VotyzjDWBihK4hr-64" value="AccountPendingState" style="rounded=1;whiteSpace=wrap;html=1;strokeWidth=1;fillColor=#fff2cc;strokeColor=#d6b656;" parent="1" vertex="1">
          <mxGeometry x="170" y="340" width="160" height="40" as="geometry" />
        </mxCell>
        <mxCell id="jYcr3VotyzjDWBihK4hr-100" style="edgeStyle=orthogonalEdgeStyle;rounded=0;orthogonalLoop=1;jettySize=auto;html=1;entryX=0;entryY=0.5;entryDx=0;entryDy=0;strokeColor=#0000CC;strokeWidth=4;" parent="1" source="jYcr3VotyzjDWBihK4hr-68" target="jYcr3VotyzjDWBihK4hr-69" edge="1">
          <mxGeometry relative="1" as="geometry" />
        </mxCell>
        <mxCell id="jYcr3VotyzjDWBihK4hr-68" value="AccountCreatedEvent" style="shape=hexagon;perimeter=hexagonPerimeter2;whiteSpace=wrap;html=1;fixedSize=1;fillColor=#dae8fc;strokeColor=#6c8ebf;" parent="1" vertex="1">
          <mxGeometry x="170" y="547.5" width="160" height="45" as="geometry" />
        </mxCell>
        <mxCell id="jYcr3VotyzjDWBihK4hr-113" style="edgeStyle=orthogonalEdgeStyle;rounded=0;orthogonalLoop=1;jettySize=auto;html=1;entryX=0;entryY=0.5;entryDx=0;entryDy=0;strokeColor=#0000CC;strokeWidth=4;" parent="1" source="jYcr3VotyzjDWBihK4hr-69" target="jYcr3VotyzjDWBihK4hr-79" edge="1">
          <mxGeometry relative="1" as="geometry">
            <Array as="points">
              <mxPoint x="650" y="415" />
              <mxPoint x="650" y="190" />
            </Array>
          </mxGeometry>
        </mxCell>
        <mxCell id="mFbpa8uduFXjR7Y9WIhg-4" style="edgeStyle=orthogonalEdgeStyle;rounded=0;orthogonalLoop=1;jettySize=auto;html=1;entryX=1;entryY=0.5;entryDx=0;entryDy=0;strokeWidth=4;fillColor=#60a917;strokeColor=#2D7600;" edge="1" parent="1" source="jYcr3VotyzjDWBihK4hr-69" target="jYcr3VotyzjDWBihK4hr-40">
          <mxGeometry relative="1" as="geometry">
            <Array as="points">
              <mxPoint x="520" y="190" />
            </Array>
          </mxGeometry>
        </mxCell>
        <mxCell id="jYcr3VotyzjDWBihK4hr-69" value="" style="rounded=1;whiteSpace=wrap;html=1;strokeWidth=1;fillColor=#ffffff;" parent="1" vertex="1">
          <mxGeometry x="420" y="315" width="200" height="200" as="geometry" />
        </mxCell>
        <mxCell id="jYcr3VotyzjDWBihK4hr-73" style="edgeStyle=orthogonalEdgeStyle;rounded=0;orthogonalLoop=1;jettySize=auto;html=1;exitX=0.5;exitY=1;exitDx=0;exitDy=0;entryX=0.5;entryY=0;entryDx=0;entryDy=0;strokeColor=#0000CC;strokeWidth=2;" parent="1" source="jYcr3VotyzjDWBihK4hr-72" target="jYcr3VotyzjDWBihK4hr-40" edge="1">
          <mxGeometry relative="1" as="geometry" />
        </mxCell>
        <mxCell id="jYcr3VotyzjDWBihK4hr-72" value="Request new account" style="ellipse;whiteSpace=wrap;html=1;strokeWidth=1;fillColor=#ffffff;" parent="1" vertex="1">
          <mxGeometry x="121" y="50" width="146" height="80" as="geometry" />
        </mxCell>
        <mxCell id="jYcr3VotyzjDWBihK4hr-74" value="" style="rounded=1;whiteSpace=wrap;html=1;strokeWidth=1;perimeterSpacing=0;" parent="1" vertex="1">
          <mxGeometry x="690" y="230" width="310" height="410" as="geometry" />
        </mxCell>
        <mxCell id="jYcr3VotyzjDWBihK4hr-75" value="" style="shape=cylinder3;whiteSpace=wrap;html=1;boundedLbl=1;backgroundOutline=1;size=15;" parent="1" vertex="1">
          <mxGeometry x="1060" y="335" width="205" height="240" as="geometry" />
        </mxCell>
        <mxCell id="jYcr3VotyzjDWBihK4hr-77" value="AccountProcessedEvent" style="shape=hexagon;perimeter=hexagonPerimeter2;whiteSpace=wrap;html=1;fixedSize=1;fillColor=#dae8fc;strokeColor=#6c8ebf;" parent="1" vertex="1">
          <mxGeometry x="1077.5" y="385" width="170" height="50" as="geometry" />
        </mxCell>
        <mxCell id="jYcr3VotyzjDWBihK4hr-78" style="edgeStyle=orthogonalEdgeStyle;rounded=0;orthogonalLoop=1;jettySize=auto;html=1;entryX=0.5;entryY=0;entryDx=0;entryDy=0;strokeWidth=2;strokeColor=#0000CC;" parent="1" source="jYcr3VotyzjDWBihK4hr-79" target="jYcr3VotyzjDWBihK4hr-114" edge="1">
          <mxGeometry relative="1" as="geometry">
            <mxPoint x="845" y="265" as="targetPoint" />
          </mxGeometry>
        </mxCell>
        <mxCell id="jYcr3VotyzjDWBihK4hr-79" value="Handler" style="rounded=0;whiteSpace=wrap;html=1;" parent="1" vertex="1">
          <mxGeometry x="785" y="160" width="120" height="60" as="geometry" />
        </mxCell>
        <mxCell id="mFbpa8uduFXjR7Y9WIhg-1" style="edgeStyle=orthogonalEdgeStyle;rounded=0;orthogonalLoop=1;jettySize=auto;html=1;entryX=0.5;entryY=1;entryDx=0;entryDy=0;strokeWidth=4;fillColor=#60a917;strokeColor=#2D7600;" edge="1" parent="1" source="jYcr3VotyzjDWBihK4hr-80" target="jYcr3VotyzjDWBihK4hr-69">
          <mxGeometry relative="1" as="geometry" />
        </mxCell>
        <mxCell id="jYcr3VotyzjDWBihK4hr-80" value="" style="rounded=1;whiteSpace=wrap;html=1;fillColor=#ffffff;" parent="1" vertex="1">
          <mxGeometry x="700" y="540" width="290" height="60" as="geometry" />
        </mxCell>
        <mxCell id="jYcr3VotyzjDWBihK4hr-81" value="AccountProcessedEvent" style="shape=hexagon;perimeter=hexagonPerimeter2;whiteSpace=wrap;html=1;fixedSize=1;fillColor=#dae8fc;strokeColor=#6c8ebf;" parent="1" vertex="1">
          <mxGeometry x="1077.5" y="445" width="170" height="50" as="geometry" />
        </mxCell>
        <mxCell id="jYcr3VotyzjDWBihK4hr-82" value="AccountCreatedEvent" style="shape=hexagon;perimeter=hexagonPerimeter2;whiteSpace=wrap;html=1;fixedSize=1;fillColor=#f8cecc;strokeColor=#b85450;" parent="1" vertex="1">
          <mxGeometry x="1077.5" y="505" width="170" height="50" as="geometry" />
        </mxCell>
        <mxCell id="jYcr3VotyzjDWBihK4hr-121" style="edgeStyle=orthogonalEdgeStyle;rounded=0;orthogonalLoop=1;jettySize=auto;html=1;entryX=-0.02;entryY=0.638;entryDx=0;entryDy=0;entryPerimeter=0;strokeColor=#0000CC;strokeWidth=2;" parent="1" source="jYcr3VotyzjDWBihK4hr-85" target="jYcr3VotyzjDWBihK4hr-75" edge="1">
          <mxGeometry relative="1" as="geometry" />
        </mxCell>
        <mxCell id="jYcr3VotyzjDWBihK4hr-85" value="" style="rounded=1;whiteSpace=wrap;html=1;fillColor=#ffffff;" parent="1" vertex="1">
          <mxGeometry x="700" y="470" width="290" height="60" as="geometry" />
        </mxCell>
        <mxCell id="jYcr3VotyzjDWBihK4hr-86" value="" style="rounded=1;whiteSpace=wrap;html=1;fillColor=#ffffff;" parent="1" vertex="1">
          <mxGeometry x="700" y="400" width="290" height="60" as="geometry" />
        </mxCell>
        <mxCell id="jYcr3VotyzjDWBihK4hr-87" value="" style="rounded=1;whiteSpace=wrap;html=1;fillColor=#ffffff;" parent="1" vertex="1">
          <mxGeometry x="700" y="330" width="290" height="60" as="geometry" />
        </mxCell>
        <mxCell id="jYcr3VotyzjDWBihK4hr-88" value="PublishService" style="text;html=1;strokeColor=none;fillColor=none;align=left;verticalAlign=middle;whiteSpace=wrap;rounded=0;" parent="1" vertex="1">
          <mxGeometry x="711" y="550" width="100" height="20" as="geometry" />
        </mxCell>
        <mxCell id="jYcr3VotyzjDWBihK4hr-89" value="EventStoreService" style="text;html=1;strokeColor=none;fillColor=none;align=left;verticalAlign=middle;whiteSpace=wrap;rounded=0;" parent="1" vertex="1">
          <mxGeometry x="711" y="480" width="100" height="20" as="geometry" />
        </mxCell>
        <mxCell id="jYcr3VotyzjDWBihK4hr-90" value="LicenseManager" style="text;html=1;strokeColor=none;fillColor=none;align=left;verticalAlign=middle;whiteSpace=wrap;rounded=0;" parent="1" vertex="1">
          <mxGeometry x="711" y="410" width="100" height="20" as="geometry" />
        </mxCell>
        <mxCell id="jYcr3VotyzjDWBihK4hr-91" value="AccountContext" style="text;html=1;strokeColor=none;fillColor=none;align=left;verticalAlign=middle;whiteSpace=wrap;rounded=0;" parent="1" vertex="1">
          <mxGeometry x="711" y="340" width="100" height="20" as="geometry" />
        </mxCell>
        <mxCell id="jYcr3VotyzjDWBihK4hr-92" value="StatesManager" style="text;html=1;strokeColor=none;fillColor=none;align=left;verticalAlign=middle;whiteSpace=wrap;rounded=0;" parent="1" vertex="1">
          <mxGeometry x="711" y="240" width="100" height="20" as="geometry" />
        </mxCell>
        <mxCell id="jYcr3VotyzjDWBihK4hr-93" value="AccountProcessedEvent" style="shape=hexagon;perimeter=hexagonPerimeter2;whiteSpace=wrap;html=1;fixedSize=1;fillColor=#dae8fc;strokeColor=#6c8ebf;" parent="1" vertex="1">
          <mxGeometry x="821" y="477.5" width="160" height="45" as="geometry" />
        </mxCell>
        <mxCell id="jYcr3VotyzjDWBihK4hr-120" style="edgeStyle=orthogonalEdgeStyle;rounded=0;orthogonalLoop=1;jettySize=auto;html=1;entryX=-0.005;entryY=0.471;entryDx=0;entryDy=0;entryPerimeter=0;strokeColor=#0000CC;strokeWidth=2;" parent="1" source="jYcr3VotyzjDWBihK4hr-94" target="jYcr3VotyzjDWBihK4hr-75" edge="1">
          <mxGeometry relative="1" as="geometry" />
        </mxCell>
        <mxCell id="jYcr3VotyzjDWBihK4hr-94" value="AccountApprovedState" style="rounded=1;whiteSpace=wrap;html=1;strokeWidth=1;fillColor=#d5e8d4;strokeColor=#82b366;" parent="1" vertex="1">
          <mxGeometry x="821" y="410" width="160" height="40" as="geometry" />
        </mxCell>
        <mxCell id="jYcr3VotyzjDWBihK4hr-96" value="AccountPendingState" style="rounded=1;whiteSpace=wrap;html=1;strokeWidth=1;fillColor=#fff2cc;strokeColor=#d6b656;" parent="1" vertex="1">
          <mxGeometry x="821" y="340" width="160" height="40" as="geometry" />
        </mxCell>
        <mxCell id="jYcr3VotyzjDWBihK4hr-98" value="AccountProcessedEvent" style="shape=hexagon;perimeter=hexagonPerimeter2;whiteSpace=wrap;html=1;fixedSize=1;fillColor=#dae8fc;strokeColor=#6c8ebf;" parent="1" vertex="1">
          <mxGeometry x="821" y="547.5" width="160" height="45" as="geometry" />
        </mxCell>
        <mxCell id="jYcr3VotyzjDWBihK4hr-101" value="MessageBroker" style="text;html=1;strokeColor=none;fillColor=none;align=center;verticalAlign=middle;whiteSpace=wrap;rounded=0;" parent="1" vertex="1">
          <mxGeometry x="470" y="330" width="100" height="20" as="geometry" />
        </mxCell>
        <mxCell id="jYcr3VotyzjDWBihK4hr-102" value="AccountCreatedEvent" style="shape=hexagon;perimeter=hexagonPerimeter2;whiteSpace=wrap;html=1;fixedSize=1;fillColor=#dae8fc;strokeColor=#6c8ebf;" parent="1" vertex="1">
          <mxGeometry x="440" y="367.5" width="160" height="45" as="geometry" />
        </mxCell>
        <mxCell id="jYcr3VotyzjDWBihK4hr-111" value="EventStore" style="text;html=1;strokeColor=none;fillColor=none;align=center;verticalAlign=middle;whiteSpace=wrap;rounded=0;" parent="1" vertex="1">
          <mxGeometry x="-177.5" y="335" width="100" height="20" as="geometry" />
        </mxCell>
        <mxCell id="jYcr3VotyzjDWBihK4hr-112" value="EventStore" style="text;html=1;strokeColor=none;fillColor=none;align=center;verticalAlign=middle;whiteSpace=wrap;rounded=0;" parent="1" vertex="1">
          <mxGeometry x="1112.5" y="340" width="100" height="20" as="geometry" />
        </mxCell>
        <mxCell id="jYcr3VotyzjDWBihK4hr-114" value="AccountCreatedEvent" style="shape=hexagon;perimeter=hexagonPerimeter2;whiteSpace=wrap;html=1;fixedSize=1;fillColor=#dae8fc;strokeColor=#6c8ebf;" parent="1" vertex="1">
          <mxGeometry x="765" y="275" width="160" height="45" as="geometry" />
        </mxCell>
        <mxCell id="jYcr3VotyzjDWBihK4hr-119" value="W" style="ellipse;whiteSpace=wrap;html=1;aspect=fixed;fillColor=#e1d5e7;strokeColor=#9673a6;" parent="1" vertex="1">
          <mxGeometry x="-10" y="515" width="35" height="35" as="geometry" />
        </mxCell>
        <mxCell id="jYcr3VotyzjDWBihK4hr-123" value="R" style="ellipse;whiteSpace=wrap;html=1;aspect=fixed;fillColor=#e1d5e7;strokeColor=#9673a6;" parent="1" vertex="1">
          <mxGeometry x="1010" y="382.5" width="35" height="35" as="geometry" />
        </mxCell>
        <mxCell id="jYcr3VotyzjDWBihK4hr-124" value="W" style="ellipse;whiteSpace=wrap;html=1;aspect=fixed;fillColor=#e1d5e7;strokeColor=#9673a6;" parent="1" vertex="1">
          <mxGeometry x="1010" y="512.5" width="35" height="35" as="geometry" />
        </mxCell>
        <mxCell id="jYcr3VotyzjDWBihK4hr-125" value="AccountRequestedEvent" style="shape=hexagon;perimeter=hexagonPerimeter2;whiteSpace=wrap;html=1;fixedSize=1;fillColor=#dae8fc;strokeColor=#6c8ebf;" parent="1" vertex="1">
          <mxGeometry x="114" y="275" width="160" height="45" as="geometry" />
        </mxCell>
      </root>
    </mxGraphModel>
  </diagram>
</mxfile>
